<svg width="28" height="28" viewBox="0 0 28 28" fill="none" xmlns="http://www.w3.org/2000/svg">
<path d="M10.5461 19.5794H10.1794C9.51274 19.5794 8.88774 19.3211 8.41274 18.8461C7.93774 18.3711 7.6794 17.7461 7.6794 17.0794V16.9294C7.6794 16.7878 7.63774 16.6378 7.57107 16.5128C7.49607 16.3878 7.39607 16.2794 7.26274 16.2044L6.9044 15.9961C6.6544 15.8544 6.3294 15.8544 6.07107 15.9961L5.92107 16.0794C5.37107 16.3961 4.69607 16.4878 4.0544 16.3128C3.42107 16.1378 2.86274 15.7211 2.53774 15.1461L2.34607 14.8378C2.01274 14.2544 1.92107 13.5878 2.09607 12.9378C2.27107 12.2961 2.6794 11.7544 3.2544 11.4211L3.36274 11.3544C3.5044 11.2711 3.6044 11.1711 3.6794 11.0378C3.7544 10.9128 3.78774 10.7628 3.78774 10.6211V10.1878C3.78774 10.0461 3.74607 9.90443 3.6794 9.77943C3.62107 9.66276 3.51274 9.55443 3.38774 9.48776L3.22107 9.37943C2.6794 9.06276 2.27107 8.52943 2.09607 7.87943C1.9294 7.23776 2.01274 6.56276 2.34607 5.98776L2.5294 5.67109C2.8544 5.10443 3.41274 4.67943 4.04607 4.51276C4.68774 4.33776 5.36274 4.42943 5.93774 4.76276L6.03774 4.81276C6.34607 4.98776 6.64607 4.97109 6.9044 4.82109L7.26274 4.62109C7.38774 4.54609 7.49607 4.43776 7.57107 4.31276C7.63774 4.18776 7.6794 4.03776 7.6794 3.89609V3.74609C7.6794 3.07943 7.93774 2.45443 8.41274 1.97943C8.8794 1.50443 9.51274 1.24609 10.1794 1.24609H10.5461C11.2127 1.24609 11.8377 1.50443 12.3127 1.97943C12.7877 2.45443 13.0461 3.07943 13.0461 3.74609V3.89609C13.0461 4.03776 13.0877 4.18776 13.1544 4.31276C13.2294 4.43776 13.3294 4.54609 13.4627 4.61276L13.8211 4.82109C14.0711 4.96276 14.3961 4.96276 14.6544 4.82109L14.8044 4.73776C15.3544 4.42109 16.0377 4.32943 16.6794 4.50443C17.3211 4.67943 17.8627 5.08776 18.1961 5.66276L18.3794 5.97943C18.7127 6.55443 18.8044 7.22943 18.6294 7.87109C18.4544 8.51276 18.0461 9.05443 17.4711 9.38776L17.3461 9.47109C17.2044 9.55443 17.1044 9.65443 17.0294 9.77943C16.9544 9.90443 16.9127 10.0544 16.9211 10.1961V10.6128C16.9211 10.7628 16.9627 10.9044 17.0294 11.0378C17.1044 11.1628 17.2044 11.2711 17.3377 11.3461L17.4377 11.3961C18.0377 11.7461 18.4544 12.2878 18.6294 12.9294C18.8044 13.5711 18.7127 14.2461 18.3794 14.8211L18.2044 15.1378C17.8627 15.7211 17.3294 16.1378 16.6794 16.3044C16.0461 16.4711 15.3544 16.3794 14.7877 16.0544L14.6877 16.0044C14.3877 15.8294 14.0877 15.8461 13.8294 15.9878L13.4711 16.1961C13.3377 16.2711 13.2377 16.3794 13.1627 16.5044C13.0877 16.6294 13.0544 16.7711 13.0544 16.9211V17.0794C13.0544 17.7461 12.7961 18.3711 12.3211 18.8461C11.8377 19.3211 11.2127 19.5794 10.5461 19.5794ZM6.48774 14.2211C6.9294 14.2211 7.3544 14.3378 7.73774 14.5544L8.09607 14.7628C8.47107 14.9794 8.78774 15.2961 9.0044 15.6711C9.22107 16.0544 9.33774 16.4794 9.33774 16.9211V17.0794C9.33774 17.3044 9.42107 17.5128 9.5794 17.6711C9.74607 17.8294 9.9544 17.9128 10.1794 17.9128H10.5461C10.7711 17.9128 10.9794 17.8294 11.1377 17.6711C11.2961 17.5128 11.3794 17.3044 11.3794 17.0794V16.9294C11.3794 16.4961 11.4961 16.0628 11.7127 15.6794C11.9294 15.2961 12.2461 14.9878 12.6294 14.7628L12.9877 14.5544C13.7461 14.1128 14.7294 14.1128 15.4877 14.5544L15.5877 14.6044C15.7961 14.7294 16.0294 14.7544 16.2461 14.6961C16.4627 14.6378 16.6377 14.5044 16.7544 14.3128L16.9294 13.9961C17.0461 13.7961 17.0711 13.5711 17.0211 13.3544C16.9627 13.1461 16.8211 12.9544 16.6294 12.8461L16.5294 12.7961C16.1211 12.5628 15.8044 12.2461 15.5877 11.8628C15.3711 11.4794 15.2544 11.0461 15.2544 10.6128V10.1961C15.2544 9.76276 15.3711 9.32109 15.5877 8.94609C15.8044 8.56276 16.1211 8.24609 16.5044 8.02943L16.6211 7.96276C16.8211 7.84609 16.9544 7.66276 17.0127 7.45443C17.0711 7.24609 17.0377 7.01276 16.9294 6.82109L16.7461 6.50443C16.6377 6.31276 16.4544 6.17943 16.2377 6.12109C16.0294 6.06276 15.7961 6.09609 15.6044 6.20443L15.4544 6.28776C14.7461 6.70443 13.7377 6.71276 12.9794 6.27109L12.6211 6.06276C12.2461 5.84609 11.9294 5.52943 11.7127 5.15443C11.4961 4.77109 11.3794 4.33776 11.3794 3.90443V3.74609C11.3794 3.52943 11.2877 3.31276 11.1377 3.15443C10.9794 3.00443 10.7627 2.91276 10.5461 2.91276H10.1794C9.96274 2.91276 9.74607 3.00443 9.58774 3.15443C9.43774 3.31276 9.34607 3.52943 9.34607 3.74609V3.89609C9.34607 4.33776 9.2294 4.76276 9.01274 5.14609C8.79607 5.52109 8.4794 5.83776 8.09607 6.06276L7.73774 6.26276C6.97107 6.70443 5.98774 6.70443 5.23774 6.26276L5.13774 6.21276C4.92107 6.08776 4.69607 6.06276 4.4794 6.12109C4.27107 6.17109 4.08774 6.31276 3.9794 6.50443L3.78774 6.82109C3.6794 7.01276 3.6544 7.23776 3.7044 7.45443C3.76274 7.67109 3.9044 7.84609 4.09607 7.95443L4.26274 8.06276C4.59607 8.25443 4.91274 8.56276 5.1294 8.94609C5.34607 9.32943 5.47107 9.75443 5.47107 10.1878V10.6211C5.47107 11.0544 5.36274 11.4878 5.13774 11.8711C4.92107 12.2544 4.6044 12.5711 4.22107 12.7878L4.11274 12.8544C3.9044 12.9711 3.77107 13.1544 3.71274 13.3711C3.6544 13.5878 3.68774 13.8128 3.79607 14.0044L3.9794 14.3211C4.08774 14.5128 4.27107 14.6544 4.48774 14.7128C4.7044 14.7711 4.9294 14.7378 5.12107 14.6294L5.27107 14.5461C5.61274 14.3378 6.04607 14.2211 6.48774 14.2211Z" fill="#1E293B"/>
<path d="M10.3629 13.7463C8.52121 13.7463 7.02954 12.2546 7.02954 10.4129C7.02954 8.57126 8.52121 7.07959 10.3629 7.07959C12.2045 7.07959 13.6962 8.57126 13.6962 10.4129C13.6962 12.2546 12.1962 13.7463 10.3629 13.7463ZM10.3629 8.74626C9.44621 8.74626 8.69621 9.49626 8.69621 10.4129C8.69621 11.3296 9.44621 12.0796 10.3629 12.0796C11.2795 12.0796 12.0295 11.3296 12.0295 10.4129C12.0295 9.49626 11.2795 8.74626 10.3629 8.74626Z" fill="#1E293B"/>
</svg>
