<svg width="28" height="28" viewBox="0 0 28 28" fill="none" xmlns="http://www.w3.org/2000/svg">
<path fill-rule="evenodd" clip-rule="evenodd" d="M2.56934 3.67326C2.56934 3.0594 3.06697 2.56177 3.68083 2.56177H11.4613C12.0751 2.56177 12.5728 3.0594 12.5728 3.67326V13.6767C12.5728 14.2906 12.0751 14.7882 11.4613 14.7882H3.68083C3.06697 14.7882 2.56934 14.2906 2.56934 13.6767V3.67326ZM4.79232 4.78475V12.5652H10.3498V4.78475H4.79232Z" fill="#1E293B"/>
<path fill-rule="evenodd" clip-rule="evenodd" d="M14.7954 3.67326C14.7954 3.0594 15.293 2.56177 15.9069 2.56177H23.6874C24.3012 2.56177 24.7988 3.0594 24.7988 3.67326V9.23072C24.7988 9.84458 24.3012 10.3422 23.6874 10.3422H15.9069C15.293 10.3422 14.7954 9.84458 14.7954 9.23072V3.67326ZM17.0184 4.78475V8.11923H22.5759V4.78475H17.0184Z" fill="#1E293B"/>
<path fill-rule="evenodd" clip-rule="evenodd" d="M14.7954 13.6767C14.7954 13.0628 15.293 12.5652 15.9069 12.5652H23.6874C24.3012 12.5652 24.7988 13.0628 24.7988 13.6767V23.6801C24.7988 24.294 24.3012 24.7916 23.6874 24.7916H15.9069C15.293 24.7916 14.7954 24.294 14.7954 23.6801V13.6767ZM17.0184 14.7882V22.5686H22.5759V14.7882H17.0184Z" fill="#1E293B"/>
<path fill-rule="evenodd" clip-rule="evenodd" d="M2.56934 18.1225C2.56934 17.5086 3.06697 17.011 3.68083 17.011H11.4613C12.0751 17.011 12.5728 17.5086 12.5728 18.1225V23.6799C12.5728 24.2938 12.0751 24.7914 11.4613 24.7914H3.68083C3.06697 24.7914 2.56934 24.2938 2.56934 23.6799V18.1225ZM4.79232 19.234V22.5684H10.3498V19.234H4.79232Z" fill="#1E293B"/>
</svg>
