<svg width="28" height="28" viewBox="0 0 28 28" fill="none" xmlns="http://www.w3.org/2000/svg">
<g clip-path="url(#clip0_79_8958)">
<path fill-rule="evenodd" clip-rule="evenodd" d="M1.56658 13.2751C2.34798 12.4937 3.40779 12.0547 4.51286 12.0547H11.1795C12.2846 12.0547 13.3444 12.4937 14.1258 13.2751C14.9072 14.0565 15.3462 15.1163 15.3462 16.2214V17.888C15.3462 18.3483 14.9731 18.7214 14.5129 18.7214C14.0526 18.7214 13.6795 18.3483 13.6795 17.888V16.2214C13.6795 15.5583 13.4161 14.9224 12.9473 14.4536C12.4785 13.9847 11.8426 13.7214 11.1795 13.7214H4.51286C3.84982 13.7214 3.21393 13.9847 2.74509 14.4536C2.27625 14.9224 2.01286 15.5583 2.01286 16.2214V17.888C2.01286 18.3483 1.63976 18.7214 1.17952 18.7214C0.719287 18.7214 0.346191 18.3483 0.346191 17.888V16.2214C0.346191 15.1163 0.785178 14.0565 1.56658 13.2751Z" fill="#1E293B"/>
<path fill-rule="evenodd" clip-rule="evenodd" d="M7.84611 3.72135C6.4654 3.72135 5.34611 4.84064 5.34611 6.22135C5.34611 7.60207 6.4654 8.72135 7.84611 8.72135C9.22682 8.72135 10.3461 7.60207 10.3461 6.22135C10.3461 4.84064 9.22682 3.72135 7.84611 3.72135ZM3.67944 6.22135C3.67944 3.92017 5.54492 2.05469 7.84611 2.05469C10.1473 2.05469 12.0128 3.92017 12.0128 6.22135C12.0128 8.52254 10.1473 10.388 7.84611 10.388C5.54492 10.388 3.67944 8.52254 3.67944 6.22135Z" fill="#1E293B"/>
<path fill-rule="evenodd" clip-rule="evenodd" d="M16.2061 12.788C16.3212 12.3424 16.7757 12.0744 17.2213 12.1895C18.1152 12.4203 18.9071 12.9414 19.4727 13.6711C20.0383 14.4007 20.3456 15.2976 20.3463 16.2208L20.3463 17.888C20.3463 18.3483 19.9732 18.7214 19.513 18.7214C19.0527 18.7214 18.6796 18.3483 18.6796 17.888V16.222C18.6796 16.2219 18.6796 16.2221 18.6796 16.222C18.6792 15.6682 18.4948 15.1299 18.1555 14.6922C17.8161 14.2544 17.341 13.9417 16.8046 13.8032C16.359 13.6882 16.091 13.2337 16.2061 12.788Z" fill="#1E293B"/>
<path fill-rule="evenodd" clip-rule="evenodd" d="M12.8722 2.78968C12.9863 2.34382 13.4403 2.07493 13.8862 2.18908C14.7824 2.41856 15.5768 2.93981 16.1441 3.67066C16.7114 4.4015 17.0194 5.30036 17.0194 6.22554C17.0194 7.15072 16.7114 8.04958 16.1441 8.78043C15.5768 9.51127 14.7824 10.0325 13.8862 10.262C13.4403 10.3762 12.9863 10.1073 12.8722 9.66141C12.758 9.21555 13.0269 8.76157 13.4728 8.64742C14.0105 8.50973 14.4872 8.19698 14.8276 7.75847C15.1679 7.31997 15.3527 6.78065 15.3527 6.22554C15.3527 5.67044 15.1679 5.13112 14.8276 4.69261C14.4872 4.25411 14.0105 3.94136 13.4728 3.80367C13.0269 3.68951 12.758 3.23553 12.8722 2.78968Z" fill="#1E293B"/>
</g>
<defs>
<clipPath id="clip0_79_8958">
<rect width="26.6758" height="26.6758" fill="white" transform="translate(0.346191 0.387939)"/>
</clipPath>
</defs>
</svg>
